<svg width="22" height="22" viewBox="0 0 22 22" fill="none" xmlns="http://www.w3.org/2000/svg">
<path d="M15.4002 4.83994C18.8023 4.83994 21.5602 3.85497 21.5602 2.63994C21.5602 1.42492 18.8023 0.439941 15.4002 0.439941C11.9982 0.439941 9.24023 1.42492 9.24023 2.63994C9.24023 3.85497 11.9982 4.83994 15.4002 4.83994Z" stroke="#0499DD" stroke-width="0.6" stroke-miterlimit="10" stroke-linecap="round" stroke-linejoin="round"/>
<path d="M9.24023 3.08008C9.24023 3.48136 9.24023 5.3188 9.24023 5.72008C9.24023 6.93492 11.9973 7.92008 15.4002 7.92008C18.8032 7.92008 21.5602 6.93492 21.5602 5.72008C21.5602 5.3188 21.5602 3.48136 21.5602 3.08008" stroke="#0499DD" stroke-width="0.6" stroke-miterlimit="10" stroke-linecap="round" stroke-linejoin="round"/>
<path d="M12.5625 10.7531C13.4117 10.9106 14.3771 10.9999 15.4005 10.9999C18.8035 10.9999 21.5605 10.0148 21.5605 8.79991C21.5605 8.39863 21.5605 6.56119 21.5605 6.15991" stroke="#0499DD" stroke-width="0.6" stroke-miterlimit="10" stroke-linecap="round" stroke-linejoin="round"/>
<path d="M9.24023 6.15991C9.24023 6.56119 9.24023 8.03871 9.24023 8.03871" stroke="#0499DD" stroke-width="0.6" stroke-miterlimit="10" stroke-linecap="round" stroke-linejoin="round"/>
<path d="M12.7715 13.8701C13.5688 14.0047 14.4598 14.08 15.4005 14.08C18.8034 14.08 21.5605 13.0953 21.5605 11.88C21.5605 11.4787 21.5605 9.64127 21.5605 9.23999" stroke="#0499DD" stroke-width="0.6" stroke-miterlimit="10" stroke-linecap="round" stroke-linejoin="round"/>
<path d="M12.7373 16.9445C13.5429 17.0826 14.4463 17.1601 15.4002 17.1601C18.8031 17.1601 21.5602 16.1753 21.5602 14.9601C21.5602 14.5588 21.5602 12.7213 21.5602 12.3201" stroke="#0499DD" stroke-width="0.6" stroke-miterlimit="10" stroke-linecap="round" stroke-linejoin="round"/>
<path d="M6.59945 12.3199C10.0015 12.3199 12.7595 11.3349 12.7595 10.1199C12.7595 8.9049 10.0015 7.91992 6.59945 7.91992C3.19738 7.91992 0.439453 8.9049 0.439453 10.1199C0.439453 11.3349 3.19738 12.3199 6.59945 12.3199Z" stroke="#0499DD" stroke-width="0.6" stroke-miterlimit="10" stroke-linecap="round" stroke-linejoin="round"/>
<path d="M0.439453 10.5601C0.439453 10.9613 0.439453 12.7988 0.439453 13.2001C0.439453 14.4153 3.19649 15.4001 6.59945 15.4001C10.0024 15.4001 12.7595 14.4153 12.7595 13.2001C12.7595 12.7988 12.7595 10.9613 12.7595 10.5601" stroke="#0499DD" stroke-width="0.6" stroke-miterlimit="10" stroke-linecap="round" stroke-linejoin="round"/>
<path d="M0.439453 13.6399C0.439453 14.0412 0.439453 15.8786 0.439453 16.2799C0.439453 17.4952 3.19649 18.4799 6.59945 18.4799C10.0024 18.4799 12.7595 17.4952 12.7595 16.2799C12.7595 15.8786 12.7595 14.0412 12.7595 13.6399" stroke="#0499DD" stroke-width="0.6" stroke-miterlimit="10" stroke-linecap="round" stroke-linejoin="round"/>
<path d="M0.439453 16.72C0.439453 17.1213 0.439453 18.9587 0.439453 19.36C0.439453 20.5753 3.19649 21.56 6.59945 21.56C10.0024 21.56 12.7595 20.5753 12.7595 19.36C12.7595 18.9587 12.7595 17.1213 12.7595 16.72" stroke="#0499DD" stroke-width="0.6" stroke-miterlimit="10" stroke-linecap="round" stroke-linejoin="round"/>
</svg>
